<?xml version="1.0" encoding="UTF-8"?>
<svg width="167px" height="73px" viewBox="0 0 167 73" version="1.1" xmlns="http://www.w3.org/2000/svg" xmlns:xlink="http://www.w3.org/1999/xlink">
    <title>61507F47-8597-4FCB-BAE9-42EE15DE0393</title>
    <g id="Page-1" stroke="none" stroke-width="1" fill="none" fill-rule="evenodd">
        <g id="ZHIC---Homepage" transform="translate(-130.000000, -6.000000)">
            <g id="Group-255" transform="translate(130.000000, 6.000000)">
                <path d="M145.214599,0.472326718 C145.214599,0.472326718 177.76396,43.4325481 152.32299,71.5910443 C152.32299,71.5910443 189.22608,47.2781435 145.214599,0.472326718" id="Fill-139" fill="#283B83"></path>
                <path d="M148.404299,34.3711305 C148.404299,34.3711305 157.655764,47.5011 156.321439,56.2181916 C154.980971,64.9336115 149.122566,61.7561611 149.122566,61.7561611 C149.122566,61.7561611 153.546111,66.5769473 150.459683,72.7301229 C150.459683,72.7301229 160.223319,68.6287489 159.817269,57.0395809 C159.403399,45.4487412 151.078533,37.2432069 148.404299,34.3711305" id="Fill-140" fill="#00ADD8"></path>
                <polygon id="Fill-141" fill="#F6D256" points="143.765385 13.654845 140.068485 9.80813511 139.370325 10.7315015 143.534154 13.8080893"></polygon>
                <polygon id="Fill-142" fill="#F6D256" points="135.049828 15.0348794 134.227116 16.2168107 139.936952 19.1390397 140.14249 18.7829557"></polygon>
                <polygon id="Fill-143" fill="#F6D256" points="128.974212 63.3384221 130.453754 65.5083611 139.133285 57.529071 138.652951 56.9461855"></polygon>
                <path d="M150.474819,12.5169366 C150.474819,12.5169366 128.266612,45.2800053 148.161395,61.2040359 C148.161395,61.2040359 120.87002,46.4351885 150.474819,12.5169366" id="Fill-144" fill="#F6D256"></path>
                <polygon id="Fill-145" fill="#F6D256" points="131.947929 21.7708847 131.303945 23.2253122 138.117992 25.2057855 138.266561 24.7722435"></polygon>
                <polygon id="Fill-146" fill="#F6D256" points="127.912226 30.2248977 127.486069 31.9156 135.217219 32.8088748 135.297089 32.3112489"></polygon>
                <polygon id="Fill-147" fill="#F6D256" points="125.376507 40.9460344 125.418396 42.9911489 134.434162 41.5974618 134.371607 41.0134618"></polygon>
                <polygon id="Fill-148" fill="#F6D256" points="126.691003 52.9231053 127.123863 55.0367618 136.341816 50.3976397 136.16197 49.8125252"></polygon>
                <path d="M150.054247,29.0913359 C150.054247,29.0913359 144.606361,41.3960153 150.466441,41.3960153 C156.325405,41.3960153 150.054247,29.0913359 150.054247,29.0913359" id="Fill-149" fill="#F6D256"></path>
                <path d="M2.21797224,50.8116779 C2.21797224,51.0724718 2.13642709,51.2970443 1.97445385,51.4826092 C1.8124806,51.6704031 1.61643712,51.7656931 1.387999,51.7656931 C1.15341706,51.7656931 0.955139465,51.6704031 0.793166221,51.4826092 C0.631192977,51.2970443 0.549647826,51.0724718 0.549647826,50.8116779 C0.549647826,50.5458687 0.631192977,50.3212962 0.793166221,50.1362885 C0.955139465,49.9507237 1.15341706,49.8582198 1.387999,49.8582198 C1.61643712,49.8582198 1.8124806,49.9507237 1.97445385,50.1362885 C2.13642709,50.3212962 2.21797224,50.5458687 2.21797224,50.8116779 L2.21797224,50.8116779 Z M4.24822308,52.4277084 C2.68992876,52.4037466 1.7672398,52.4037466 1.4823903,52.4277084 C1.30812943,52.451113 1.13498562,52.5347008 0.964634448,52.6768 C0.752393645,52.8712809 0.641246488,53.1019832 0.632868562,53.3700214 L0.632868562,58.4644183 C0.605500669,59.0450748 0.831146154,59.3315023 1.31036355,59.322029 L4.08848395,59.322029 C4.43253746,59.3315023 4.64142709,59.2846931 4.71403579,59.1821588 C4.78832007,59.0785099 4.84528997,58.9609298 4.88382843,58.8266321 C4.99441706,59.1498382 5.28541037,59.3186855 5.75680836,59.3292733 C5.98580502,59.3203573 6.28741037,59.3198 6.65994883,59.322029 L6.6711194,57.3933802 L6.10700569,57.3933802 C5.85343378,57.3761053 5.70765786,57.284716 5.66744381,57.1192122 C5.65236355,57.0573573 5.64454415,56.7068458 5.64454415,56.0710214 L5.64454415,50.0482427 C4.78552742,50.4377618 4.32083177,50.8233802 4.24822308,51.2017542 L4.24822308,52.4277084 Z M2.01634348,55.0596092 C2.01634348,54.6321969 2.04929666,54.3831053 2.11743712,54.3106626 C2.18446054,54.2393344 2.41457425,54.205342 2.8066612,54.205342 L3.36407258,54.205342 C3.78743712,54.1908534 4.02537023,54.2226168 4.07675485,54.3067618 C4.12758094,54.3892351 4.14992207,54.641113 4.14154415,55.0596092 L4.14154415,56.5619603 C4.13819298,57.0406397 4.13372475,57.2997618 4.12981505,57.3404412 C4.12646388,57.3777771 3.95555418,57.3950519 3.6198786,57.3933802 L2.3369388,57.3861359 C2.14703913,57.4017389 2.04706254,57.3761053 2.03756756,57.3097924 C2.02695552,57.2412504 2.02025318,56.9938305 2.01634348,56.5619603 L2.01634348,55.0596092 Z M3.71482843,50.8116779 C3.71482843,51.0724718 3.63216622,51.2970443 3.46795886,51.4826092 C3.30319298,51.6704031 3.10659097,51.7656931 2.87703579,51.7656931 C2.64803913,51.7656931 2.4508786,51.6704031 2.28667124,51.4826092 C2.12302241,51.2970443 2.04091873,51.0724718 2.04091873,50.8116779 C2.04091873,50.5458687 2.12302241,50.3212962 2.28667124,50.1362885 C2.4508786,49.9507237 2.64803913,49.8582198 2.87703579,49.8582198 C3.10659097,49.8582198 3.30319298,49.9507237 3.46795886,50.1362885 C3.63216622,50.3212962 3.71482843,50.5458687 3.71482843,50.8116779 L3.71482843,50.8116779 Z" id="Fill-150" fill="#283B83"></path>
                <polygon id="Fill-151" fill="#283B83" points="6.33259532 59.3222519 7.68646823 59.3222519 7.68646823 57.3930458 6.33259532 57.3930458"></polygon>
                <polygon id="Fill-152" fill="#283B83" points="7.4423913 59.3222519 8.79570569 59.3222519 8.79570569 57.3930458 7.4423913 57.3930458"></polygon>
                <path d="M12.1863642,52.4872229 L12.1863642,57.1620092 C12.1746351,57.2951924 12.2137321,57.3732076 12.3053308,57.3932687 L13.2012104,57.3932687 L13.1665816,59.3224748 L8.46377224,59.3224748 L8.46991605,57.3932687 L10.5537856,57.3932687 C10.7280465,57.3843527 10.8135013,57.3102382 10.8090331,57.1737115 L10.8090331,53.9561389 C10.8090331,53.7867344 10.8822003,53.5643908 11.0290933,53.2868794 C11.2027957,52.9826198 11.4016318,52.7675206 11.6250431,52.6360092 C11.8495716,52.5056122 12.0081936,52.4392992 12.1025849,52.4392992 C12.1500599,52.4392992 12.1791033,52.4560168 12.1863642,52.4872229 M10.7313977,60.9279176 C10.7313977,61.1931695 10.6470599,61.4171847 10.4795013,61.6027496 C10.3113843,61.7899863 10.1119896,61.8824901 9.88299298,61.8824901 C9.65287926,61.8824901 9.45627726,61.7899863 9.29262843,61.6027496 C9.12786254,61.4171847 9.04631739,61.1931695 9.04631739,60.9279176 C9.04631739,60.6693527 9.12786254,60.4436656 9.29262843,60.2592153 C9.45627726,60.0730931 9.65287926,59.9805893 9.88299298,59.9805893 C10.1119896,59.9805893 10.3113843,60.0730931 10.4795013,60.2592153 C10.6470599,60.4436656 10.7313977,60.6693527 10.7313977,60.9279176 M12.4120097,60.9279176 C12.4120097,61.1931695 12.3304645,61.4171847 12.1684913,61.6027496 C12.0065181,61.7899863 11.8082405,61.8824901 11.5747756,61.8824901 C11.337401,61.8824901 11.1380064,61.7899863 10.9760331,61.6027496 C10.8135013,61.4171847 10.7313977,61.1931695 10.7313977,60.9279176 C10.7313977,60.6693527 10.8135013,60.4436656 10.9760331,60.2592153 C11.1380064,60.0730931 11.337401,59.9805893 11.5747756,59.9805893 C11.8082405,59.9805893 12.0065181,60.0730931 12.1684913,60.2592153 C12.3304645,60.4436656 12.4120097,60.6693527 12.4120097,60.9279176" id="Fill-153" fill="#283B83"></path>
                <path d="M12.9284809,57.3931015 L13.706511,57.3931015 C13.8366482,57.3880863 13.912608,57.2571321 13.9310395,56.9957809 C13.9204274,54.9662695 13.9142836,53.885758 13.9142836,53.7559183 C13.8869157,52.7567656 14.2544274,52.2814298 15.0190528,52.3332542 L18.195404,52.3332542 C18.9108789,52.2931321 19.2381766,52.7534221 19.1745043,53.7130099 L19.1745043,58.3159107 C19.1745043,58.6318725 19.1365244,58.8558878 19.0616816,58.9857275 C18.9237251,59.2103 18.6360829,59.3223076 18.2015478,59.3223076 L12.9223371,59.3223076 L12.9284809,57.3931015 Z M17.1269391,57.4688878 C17.5469525,57.4454832 17.7552836,57.2571321 17.7552836,56.9004908 C17.7485813,55.7949031 17.7485813,55.0130786 17.7552836,54.5539031 C17.7362936,54.2345977 17.615093,54.0757809 17.3939157,54.0757809 C17.3576114,54.0757809 17.3246582,54.0791244 17.2928221,54.086926 L15.9858656,54.086926 C15.65019,54.1075443 15.4815144,54.2340405 15.4815144,54.4658573 C15.4815144,54.5015214 15.4859826,54.5394145 15.4926849,54.5789794 L15.4926849,55.7865443 C15.5133505,56.869842 15.4574977,57.4287656 15.3262435,57.4688878 L17.1269391,57.4688878 Z" id="Fill-154" fill="#283B83"></path>
                <path d="M25.9906177,59.3222519 L23.3962532,59.3222519 L20.7002365,59.3222519 C20.0361462,59.2275191 19.7228117,58.5805496 19.7624672,57.3819008 L21.4123602,57.3930458 L21.4570425,57.3930458 L21.5017247,57.3930458 L22.0591361,57.3930458 C22.1758686,57.3557099 22.2400993,57.1617863 22.2557381,56.8057023 C22.283106,56.4858397 22.2752866,56.2612672 22.2328385,56.130313 C21.8921361,55.4794427 21.5827114,54.896 21.3056813,54.3833282 C20.759999,53.3836183 20.3042398,52.553313 19.9406378,51.8890687 C19.7546478,51.5257405 19.6613736,51.1 19.6613736,50.6151908 C19.6613736,50.142084 19.7468284,49.6650763 19.9166211,49.188626 C20.0629555,48.7818321 20.1802465,48.5778779 20.2673769,48.5778779 C20.2824572,48.5778779 20.2902766,48.5923664 20.2902766,48.6185573 C20.3109421,48.8598473 20.4846445,49.3808779 20.8136177,50.1844351 C21.1576712,51.0721374 21.4564839,51.6867863 21.7094973,52.0300534 C22.1412398,52.6552901 22.754504,53.8355496 23.550407,55.5741756 L23.550407,49.6260687 C23.550407,49.2894885 23.755387,48.9412061 24.1681395,48.5778779 C24.55129,48.2390687 24.8171495,48.0874962 24.9634839,48.1270611 L24.9573401,56.6513435 C24.9500793,57.1528702 25.1321595,57.3991756 25.5041395,57.3930458 L25.9906177,57.3930458 L25.9906177,59.3222519 Z" id="Fill-155" fill="#283B83"></path>
                <path d="M25.5152542,57.3931015 L26.5295418,57.3975595 C26.6339866,57.3947733 26.6948662,57.310071 26.7144147,57.1434527 L26.7144147,54.1593687 C27.0121104,53.2850405 27.4807157,52.863758 28.1213478,52.8899489 L28.1213478,57.1434527 C28.1213478,57.310071 28.1766421,57.3931015 28.2877893,57.3931015 L29.5997726,57.3931015 C29.6997492,57.3841855 29.7561605,57.2933534 29.7717993,57.1194908 L29.7717993,53.6896053 C29.9460602,53.0771855 30.4375652,52.706613 31.2446388,52.5751015 L31.2446388,57.1735443 C31.2446388,57.3022695 31.3004916,57.376384 31.4105217,57.3931015 L32.1941371,57.3931015 C32.3052843,57.3931015 32.3672809,57.318987 32.3784515,57.1735443 L32.3784515,53.5129565 C32.477311,52.8843763 32.9576455,52.4513916 33.8211304,52.2151168 C33.8646957,52.2151168 33.9099365,52.2569107 33.9579699,52.3404985 L33.9579699,57.102216 C34.0015351,58.6530481 33.793204,59.3941931 33.3352107,59.3223076 L25.6096455,59.3223076 L25.5152542,57.3931015 Z" id="Fill-156" fill="#283B83"></path>
                <path d="M35.4482355,60.7932298 C35.4482355,60.7330466 35.4275699,60.702955 35.3884729,60.702955 L34.6819344,60.702955 L34.6819344,60.346871 C34.6819344,60.0281229 34.8578709,59.8670771 35.2103023,59.8670771 C35.4353893,59.8670771 35.5716702,59.8603901 35.616911,59.8442298 C35.6627104,59.829184 35.7006903,59.7907336 35.7325264,59.7311076 C35.7481652,59.7634282 35.7565431,59.7879473 35.7565431,59.8035504 C35.7565431,60.0554282 35.6850515,60.1808099 35.5431853,60.1808099 L35.1874027,60.1808099 C35.0639679,60.198642 35.0025298,60.269413 35.0025298,60.3959092 L35.3594294,60.3959092 C35.449911,60.3842069 35.5320147,60.4126267 35.6051819,60.4806115 C35.6783492,60.5502679 35.715212,60.6249397 35.715212,60.702955 L35.715212,60.8684588 L35.715212,61.0646115 C35.7068341,61.2028099 35.6576836,61.2730237 35.5666435,61.2730237 C35.0639679,61.2919702 34.7489579,61.2919702 34.6227304,61.2730237 C34.5227538,61.2440466 34.4736033,61.1192221 34.4736033,60.8924206 L35.4063458,60.8924206 C35.4337137,60.8924206 35.4482355,60.8589855 35.4482355,60.7932298 M36.2854696,57.3555427 L36.931687,57.3555427 L37.0746702,57.3555427 C37.1975465,57.3555427 37.276299,57.1777794 37.3126033,56.8233672 C37.3438809,56.4957031 37.3360615,56.2627718 37.2885866,56.1251305 C36.9484428,55.4686878 36.6362254,54.8835733 36.3558441,54.3658863 C35.8140716,53.3672908 35.3594294,52.5347565 34.9913592,51.8716267 C34.8048107,51.5043977 34.712095,51.0769855 34.712095,50.5921763 C34.712095,50.1140542 34.7969913,49.6359321 34.9673425,49.1589244 C35.1164696,48.7471153 35.2337605,48.5431611 35.3169813,48.5431611 C35.3365298,48.5431611 35.3465833,48.5559779 35.3465833,48.5843977 C35.3633391,48.828474 35.5348074,49.3517336 35.8632221,50.1536191 C36.2117438,51.0463366 36.5122321,51.6632145 36.765804,52.0070389 C37.1975465,52.6356191 37.8136033,53.8192221 38.6134161,55.5623061 L38.6134161,49.5980389 C38.6134161,49.257558 38.8178375,48.9064893 39.2294729,48.5431611 C39.6131819,48.2076954 39.8807171,48.0555656 40.0315197,48.0923443 L40.0315197,57.3143061 C40.0315197,58.0248023 39.7958207,58.5692374 39.3244227,58.9437107 C39.0082957,59.1967031 38.7173023,59.3220847 38.4514428,59.3220847 L35.7509579,59.3220847 C35.0857505,59.2273519 34.7729746,58.5775962 34.8126301,57.3750466 C34.7249411,57.3750466 35.2158876,57.3683595 36.2854696,57.3555427" id="Fill-157" fill="#283B83"></path>
                <path d="M42.4243672,46.9963412 L42.4243672,57.2731809 C42.4243672,58.0271427 42.3266247,58.6729977 42.1333739,59.2101885 C41.9038187,59.8538145 41.5614408,60.1764634 41.1067987,60.1764634 L40.8923237,60.1764634 L40.8923237,48.4485397 C40.8923237,48.1247763 41.0883672,47.7781656 41.4804542,47.4114939 C41.8479659,47.0760282 42.1372836,46.9082954 42.3472903,46.9082954 C42.3981164,46.9082954 42.4243672,46.9367153 42.4243672,46.9963412" id="Fill-158" fill="#283B83"></path>
                <path d="M46.808592,50.8116779 C46.808592,51.0724718 46.7281639,51.2970443 46.5650736,51.4826092 C46.4031003,51.6704031 46.2064983,51.7656931 45.9763846,51.7656931 C45.7440368,51.7656931 45.5452007,51.6704031 45.383786,51.4826092 C45.2212542,51.2970443 45.1402676,51.0724718 45.1402676,50.8116779 C45.1402676,50.5458687 45.2212542,50.3212962 45.383786,50.1362885 C45.5452007,49.9507237 45.7440368,49.8582198 45.9763846,49.8582198 C46.2064983,49.8582198 46.4031003,49.9507237 46.5650736,50.1362885 C46.7281639,50.3212962 46.808592,50.5458687 46.808592,50.8116779 L46.808592,50.8116779 Z M48.8388428,52.4277084 C47.2794314,52.4037466 46.357301,52.4037466 46.071893,52.4277084 C45.8987492,52.451113 45.7256054,52.5347008 45.5558127,52.6768 C45.3424548,52.8712809 45.2307492,53.1019832 45.2229298,53.3700214 L45.2229298,58.4644183 C45.1961204,59.0450748 45.4206488,59.3315023 45.9004247,59.322029 L48.6791037,59.322029 C49.0231572,59.3315023 49.2320468,59.2846931 49.305214,59.1821588 C49.3789398,59.0785099 49.4347926,58.9609298 49.4750067,58.8266321 C49.5850368,59.1498382 49.8760301,59.3186855 50.3468696,59.3292733 C50.5769833,59.3203573 50.8774716,59.3198 51.2494515,59.322029 L51.2606221,57.3933802 L50.6970669,57.3933802 C50.443495,57.3761053 50.2971605,57.284716 50.2580635,57.1192122 C50.2424247,57.0573573 50.2334883,56.7068458 50.2334883,56.0710214 L50.2334883,50.0482427 C49.3755886,50.4377618 48.9103344,50.8233802 48.8388428,51.2017542 L48.8388428,52.4277084 Z M46.6052876,55.0596092 C46.6052876,54.6321969 46.6404749,54.3831053 46.7069398,54.3106626 C46.7745217,54.2393344 47.0040769,54.205342 47.3956054,54.205342 L47.9546923,54.205342 C48.3780569,54.1908534 48.61599,54.2226168 48.6679331,54.3067618 C48.7176421,54.3892351 48.7405418,54.641113 48.7321639,55.0596092 L48.7321639,56.5619603 C48.7282542,57.0406397 48.7243445,57.2997618 48.7204348,57.3404412 C48.7170836,57.3777771 48.5461739,57.3950519 48.2093813,57.3933802 L46.9275585,57.3861359 C46.7376589,57.4017389 46.6376823,57.3761053 46.6281873,57.3097924 C46.6175753,57.2412504 46.6114314,56.9938305 46.6052876,56.5619603 L46.6052876,55.0596092 Z M48.3037726,50.8116779 C48.3037726,51.0724718 48.2233445,51.2970443 48.0580201,51.4826092 C47.8943712,51.6704031 47.6966522,51.7656931 47.4676555,51.7656931 C47.2386589,51.7656931 47.0409398,51.6704031 46.8767324,51.4826092 C46.7119666,51.2970443 46.6298629,51.0724718 46.6298629,50.8116779 C46.6298629,50.5458687 46.7119666,50.3212962 46.8767324,50.1362885 C47.0409398,49.9507237 47.2386589,49.8582198 47.4676555,49.8582198 C47.6966522,49.8582198 47.8943712,49.9507237 48.0580201,50.1362885 C48.2233445,50.3212962 48.3037726,50.5458687 48.3037726,50.8116779 L48.3037726,50.8116779 Z" id="Fill-159" fill="#283B83"></path>
                <polygon id="Fill-160" fill="#283B83" points="50.9232709 59.3222519 52.2765853 59.3222519 52.2765853 57.3930458 50.9232709 57.3930458"></polygon>
                <polygon id="Fill-161" fill="#283B83" points="52.0336254 59.3222519 53.3874983 59.3222519 53.3874983 57.3930458 52.0336254 57.3930458"></polygon>
                <polygon id="Fill-162" fill="#283B83" points="53.1428629 59.3222519 54.4967358 59.3222519 54.4967358 57.3930458 53.1428629 57.3930458"></polygon>
                <polygon id="Fill-163" fill="#283B83" points="54.2537759 59.3222519 55.6070903 59.3222519 55.6070903 57.3930458 54.2537759 57.3930458"></polygon>
                <path d="M55.097098,57.3974481 L56.9670512,57.3974481 C56.8117803,57.2921275 56.7369375,57.1037763 56.7414057,56.8340664 L56.7414057,53.3345244 C56.7570445,53.0631427 56.8581381,52.8229672 57.0469207,52.616784 C57.2345863,52.413387 57.4127569,52.3091809 57.5786398,52.3091809 L60.7309742,52.3091809 C60.9286933,52.3091809 61.1275294,52.4484939 61.3252485,52.7254481 C61.5106799,52.9728679 61.6033957,53.1846237 61.6033957,53.357929 L61.6033957,58.2935092 C61.5883154,58.9204176 61.3855696,59.2647992 60.9979508,59.3221962 L54.9960043,59.3221962 L55.097098,57.3974481 Z M58.3801281,54.1213641 C58.2136866,54.1213641 58.1304659,54.2211122 58.1304659,54.4183794 L58.1304659,56.7281885 C58.1142686,56.9577763 58.1662117,57.1249519 58.2851783,57.231387 C58.4035863,57.3400511 58.4985361,57.3929901 58.5694692,57.3929901 L59.9049107,57.3929901 C60.0640913,57.4158374 60.1512217,57.3133031 60.166302,57.0842725 L60.166302,54.5838832 C60.166302,54.2762802 60.0523622,54.1213641 59.8222485,54.1213641 L58.3801281,54.1213641 Z M59.6563656,50.0601122 C59.5144993,49.8845779 59.3413555,49.7982038 59.1397268,49.7982038 C58.9347468,49.7982038 58.7593689,49.8845779 58.6175027,50.0601122 C58.4745194,50.2328603 58.4035863,50.440158 58.4035863,50.6803336 C58.4035863,50.9266389 58.4745194,51.1361656 58.6175027,51.3083565 C58.7593689,51.4827763 58.9347468,51.5680359 59.1397268,51.5680359 C59.3413555,51.5680359 59.5144993,51.4827763 59.6563656,51.3083565 C59.7982318,51.1361656 59.8708405,50.9266389 59.8708405,50.6803336 C59.8708405,50.440158 59.7982318,50.2328603 59.6563656,50.0601122 L59.6563656,50.0601122 Z" id="Fill-164" fill="#283B83"></path>
                <path d="M62.8919207,47.3402771 C63.2560813,47.0449336 63.5325528,46.8950328 63.723011,46.8950328 C63.7822151,46.8950328 63.8123756,46.9150939 63.8123756,46.955216 L63.8123756,57.0492771 C63.8157268,57.2783076 63.9056498,57.3931015 64.0799107,57.3931015 L64.3239876,57.3931015 L64.3284559,59.3340099 L63.3253388,59.3340099 C63.0566866,59.3340099 62.8170779,59.2220023 62.6070712,59.000216 C62.3970645,58.7773153 62.2926197,58.5365824 62.2926197,58.2819183 L62.2926197,48.2112618 C62.2926197,47.9471244 62.4920144,47.6551244 62.8919207,47.3402771" id="Fill-165" fill="#283B83"></path>
                <path d="M64.0970575,57.3974481 L65.5693385,57.3929901 C65.3956361,57.2146695 65.3168836,57.0291046 65.3319639,56.8340664 L65.3319639,53.3345244 C65.3319639,53.1601046 65.4520475,52.9461198 65.6916562,52.6914557 C65.9318234,52.4373489 66.149091,52.3091809 66.3479271,52.3091809 L70.1542983,52.3091809 C70.3978167,52.3091809 70.6413351,52.4484939 70.8826194,52.7254481 C71.1054722,52.9728679 71.2160609,53.1846237 71.2160609,53.357929 L71.2160609,57.4041351 L71.9337699,57.3974481 L71.9337699,59.3221962 L64.0909137,59.3221962 L64.0970575,57.3974481 Z M67.7185559,50.0601122 C67.545412,49.8845779 67.3348468,49.7982038 67.0896528,49.7982038 C66.84781,49.7982038 66.6411545,49.8845779 66.4657766,50.0601122 C66.2920742,50.2328603 66.2043853,50.440158 66.2043853,50.6803336 C66.2043853,50.9266389 66.2920742,51.1361656 66.4657766,51.3083565 C66.6411545,51.4827763 66.84781,51.5680359 67.0896528,51.5680359 C67.3348468,51.5680359 67.545412,51.4827763 67.7185559,51.3083565 C67.8922582,51.1361656 67.9805057,50.9266389 67.9805057,50.6803336 C67.9805057,50.440158 67.8922582,50.2328603 67.7185559,50.0601122 L67.7185559,50.0601122 Z M67.3158569,54.1213641 C67.113111,54.1213641 67.0120174,54.2211122 67.0120174,54.4183794 L67.0120174,56.7281885 C67.0002883,56.9689214 67.063402,57.1399977 67.2019171,57.2414176 C67.3409906,57.3406084 67.4526963,57.3929901 67.5409438,57.3929901 L69.1612348,57.3929901 C69.3600709,57.4158374 69.4645157,57.3133031 69.4762448,57.0842725 L69.4762448,54.5838832 C69.4762448,54.2762802 69.3360542,54.1213641 69.0545559,54.1213641 L67.3158569,54.1213641 Z M69.5097565,50.0601122 C69.3332615,49.8845779 69.1215793,49.7982038 68.8763853,49.7982038 C68.6311913,49.7982038 68.4223017,49.8845779 68.251392,50.0601122 C68.0771311,50.2328603 67.9916763,50.440158 67.9916763,50.6803336 C67.9916763,50.9266389 68.0771311,51.1361656 68.251392,51.3083565 C68.4223017,51.4827763 68.6311913,51.5680359 68.8763853,51.5680359 C69.1215793,51.5680359 69.3332615,51.4827763 69.5097565,51.3083565 C69.6851344,51.1361656 69.7733819,50.9266389 69.7733819,50.6803336 C69.7733819,50.440158 69.6851344,50.2328603 69.5097565,50.0601122 L69.5097565,50.0601122 Z" id="Fill-166" fill="#283B83"></path>
                <path d="M73.2454181,50.8589885 C73.2454181,51.1270267 73.1633144,51.3560573 73.0002241,51.5432939 C72.8360167,51.7305305 72.6394147,51.8230344 72.4104181,51.8230344 C72.1791873,51.8230344 71.9825853,51.7305305 71.819495,51.5432939 C71.653612,51.3560573 71.5726254,51.1270267 71.5726254,50.8589885 C71.5726254,50.5976374 71.653612,50.3730649 71.819495,50.1858282 C71.9825853,49.9991489 72.1791873,49.9049733 72.4104181,49.9049733 C72.6394147,49.9049733 72.8360167,49.9991489 73.0002241,50.1858282 C73.1633144,50.3730649 73.2454181,50.5976374 73.2454181,50.8589885 M74.7311037,52.4226374 L74.7311037,57.1486908 C74.7417157,57.3024924 74.8517458,57.3844084 75.0561672,57.3933244 L75.8291706,57.3933244 L75.7811371,59.3292176 L71.6201003,59.3292176 L71.5893813,57.3933244 L73.1633144,57.3933244 C73.2733445,57.3844084 73.3308729,57.3075076 73.3353411,57.1620649 L73.3353411,53.897126 C73.3353411,53.7238206 73.4096254,53.5025916 73.5609866,53.2339962 C73.735806,52.9202634 73.9352007,52.6995916 74.1630803,52.5708664 C74.3909599,52.439355 74.5523746,52.3758282 74.6484415,52.3758282 C74.6936823,52.3758282 74.7216087,52.3914313 74.7311037,52.4226374 M74.0664548,49.163271 C74.0664548,49.4301947 73.9843512,49.6542099 73.8223779,49.8408893 C73.6587291,50.0258969 73.4632441,50.116729 73.234806,50.116729 C73.0002241,50.116729 72.802505,50.0258969 72.6410903,49.8408893 C72.478,49.6542099 72.3975719,49.4301947 72.3975719,49.163271 C72.3975719,48.8969046 72.478,48.6684313 72.6410903,48.4817519 C72.802505,48.2967443 73.0002241,48.2047977 73.234806,48.2047977 C73.4632441,48.2047977 73.6587291,48.2967443 73.8223779,48.4817519 C73.9843512,48.6684313 74.0664548,48.8969046 74.0664548,49.163271 M74.9271472,50.8589885 C74.9271472,51.1270267 74.8444849,51.3560573 74.6774849,51.5432939 C74.5099264,51.7305305 74.3116488,51.8230344 74.0781839,51.8230344 C73.8486288,51.8230344 73.6525853,51.7305305 73.4889365,51.5432939 C73.3269632,51.3560573 73.2454181,51.1270267 73.2454181,50.8589885 C73.2454181,50.5976374 73.3269632,50.3730649 73.4889365,50.1858282 C73.6525853,49.9991489 73.8486288,49.9049733 74.0781839,49.9049733 C74.3116488,49.9049733 74.5099264,49.9991489 74.6774849,50.1858282 C74.8444849,50.3730649 74.9271472,50.5976374 74.9271472,50.8589885" id="Fill-167" fill="#283B83"></path>
                <path d="M77.0332462,47.3402771 C77.3974067,47.0449336 77.6755538,46.8950328 77.8643365,46.8950328 C77.9252161,46.8950328 77.9531425,46.9150939 77.9531425,46.955216 L77.9531425,57.0492771 C77.9509084,57.2693916 78.0341291,57.3841855 78.2039217,57.3931015 L78.7669184,57.3931015 L78.8104836,59.3223076 L75.3403465,59.3223076 L75.4431157,57.3931015 L76.0424167,57.3931015 C76.3066007,57.3841855 76.4384134,57.1869183 76.4339452,56.7996282 L76.4339452,48.2112618 C76.4339452,47.9471244 76.6344569,47.6551244 77.0332462,47.3402771" id="Fill-168" fill="#283B83"></path>
                <path d="M80.1329672,47.3402771 C80.4976863,47.0449336 80.7735993,46.8950328 80.963499,46.8950328 C81.0232615,46.8950328 81.0539806,46.9150939 81.0539806,46.955216 L81.0539806,58.5282237 C81.0092983,59.0414527 80.8624054,59.3078191 80.6077164,59.3223076 L78.3166328,59.3340099 L78.5059739,57.3931015 L79.3739271,57.3931015 C79.5001545,57.3206588 79.5515391,57.164071 79.5325492,56.9177656 L79.5325492,48.2112618 C79.5325492,47.9471244 79.7330609,47.6551244 80.1329672,47.3402771" id="Fill-169" fill="#283B83"></path>
                <path d="M83.9248167,51.701442 C83.9147632,51.7114725 83.9119706,51.717045 83.9119706,51.717045 L83.9047097,51.717045 C84.008596,51.6652206 84.0839973,51.6412588 84.1309137,51.6412588 C84.1822983,51.6412588 84.2174856,51.6635489 84.2387097,51.7114725 C84.5570709,52.0240908 84.7693117,52.2012969 84.8715224,52.2458771 C84.9720575,52.2882282 85.2122247,52.3127473 85.590907,52.3216634 C84.951392,52.3127473 85.2725458,52.3094038 86.5582783,52.3094038 C86.9548334,52.3094038 87.4027732,52.4063656 87.9076829,52.6008466 C88.5483151,52.8449229 89.019713,53.170358 89.3196428,53.5771519 C89.8658836,54.3082664 90.1725157,54.9418618 90.2339538,55.4790527 L90.2339538,57.393213 L91.0069572,57.393213 L91.0069572,59.3224191 L84.0722682,59.3224191 C83.7304488,59.3224191 83.5461344,59.0142588 83.5193251,58.3929229 C83.5260274,58.2279763 83.5522783,58.0764038 83.5980776,57.9426634 C83.6958201,57.6177855 83.8633786,57.4344496 84.1013117,57.3859687 L88.8393084,57.3859687 L88.8393084,56.1527702 C88.8393084,55.7431901 88.6393552,55.3313809 88.2405659,54.915671 C87.7674923,54.4230603 87.1983518,54.1750832 86.5303518,54.1750832 L84.7910943,54.1750832 C84.6246528,54.1750832 84.4308435,54.0792359 84.2141344,53.8858695 C83.9382214,53.6568389 83.7980308,53.3821137 83.7980308,53.0628084 L83.7980308,52.0146176 C83.7980308,51.9633504 83.8471813,51.8530145 83.941014,51.6869534 C83.9382214,51.6869534 83.9309605,51.6919687 83.9248167,51.701442" id="Fill-170" fill="#283B83"></path>
                <polygon id="Fill-171" fill="#283B83" points="90.7156288 59.3222519 92.0678261 59.3222519 92.0678261 57.3930458 90.7156288 57.3930458"></polygon>
                <polygon id="Fill-172" fill="#283B83" points="91.8248662 59.3222519 93.1809732 59.3222519 93.1809732 57.3930458 91.8248662 57.3930458"></polygon>
                <polygon id="Fill-173" fill="#283B83" points="92.9341037 59.3222519 94.2885351 59.3222519 94.2885351 57.3930458 92.9341037 57.3930458"></polygon>
                <polygon id="Fill-174" fill="#283B83" points="94.0455753 59.3222519 95.4005652 59.3222519 95.4005652 57.3930458 94.0455753 57.3930458"></polygon>
                <path d="M98.492411,52.4279313 L98.492411,58.3091679 C98.492411,58.4607405 98.3985783,58.6602366 98.2081201,58.9093282 C97.9774478,59.1857252 97.7462171,59.3222519 97.5071669,59.3222519 L95.1803375,59.3222519 L95.1870398,57.3930458 L96.8017455,57.3930458 C96.9508726,57.384687 97.0307421,57.2977557 97.0391201,57.1311374 L97.0391201,53.7252137 C97.0391201,53.5530229 97.2184077,53.2821985 97.5825682,52.9166412 C97.9439361,52.553313 98.2472171,52.3883664 98.492411,52.4279313 M97.1932739,60.8457786 C97.1932739,61.1071298 97.1111702,61.331145 96.949197,61.5194962 C96.7872237,61.7050611 96.5911803,61.7997939 96.3621836,61.7997939 C96.1276017,61.7997939 95.9298826,61.7050611 95.7684679,61.5194962 C95.6070532,61.331145 95.5238324,61.1071298 95.5238324,60.8457786 C95.5238324,60.585542 95.6070532,60.3609695 95.7684679,60.1731756 C95.9298826,59.9853817 96.1276017,59.8928779 96.3621836,59.8928779 C96.5911803,59.8928779 96.7872237,59.9853817 96.949197,60.1731756 C97.1111702,60.3609695 97.1932739,60.585542 97.1932739,60.8457786 M98.7727923,60.8218168 C98.7727923,61.0814962 98.6895716,61.3060687 98.5264813,61.4933053 C98.3628324,61.6816565 98.1639963,61.7758321 97.9349997,61.7758321 C97.704886,61.7758321 97.509401,61.6816565 97.3435181,61.4933053 C97.1804278,61.3060687 97.09609,61.0814962 97.09609,60.8218168 C97.09609,60.5621374 97.1804278,60.3370076 97.3435181,60.149771 C97.509401,59.9625344 97.704886,59.8672443 97.9349997,59.8672443 C98.1639963,59.8672443 98.3628324,59.9625344 98.5264813,60.149771 C98.6895716,60.3370076 98.7727923,60.5621374 98.7727923,60.8218168" id="Fill-175" fill="#283B83"></path>
                <path d="M100.8618,46.9963412 L100.8618,57.2731809 C100.8618,58.0271427 100.765733,58.6729977 100.570248,59.2101885 C100.341252,59.8538145 99.999991,60.1764634 99.5431147,60.1764634 L99.3303154,60.1764634 L99.3303154,48.4485397 C99.3303154,48.1247763 99.5258003,47.7781656 99.9178873,47.4114939 C100.285958,47.0760282 100.574717,46.9082954 100.786399,46.9082954 C100.836108,46.9082954 100.8618,46.9367153 100.8618,46.9963412" id="Fill-176" fill="#283B83"></path>
                <path d="M103.966381,59.3222519 C103.966381,59.8020458 103.872548,60.2066107 103.682648,60.5370611 C103.578203,60.7198397 103.344738,61.0051527 102.980019,61.3957863 C102.501361,61.8627634 101.923284,62.131916 101.248581,62.2015725 L101.140785,61.9887023 C101.527287,61.7591145 101.836712,61.4141756 102.059565,60.9522137 C102.25114,60.5732824 102.346648,60.1971374 102.346648,59.8209924 L102.346648,54.0757252 C102.346648,53.9520153 102.373458,53.8517099 102.436013,53.7742519 C102.493541,53.6934504 102.690143,53.4906107 103.020792,53.1657328 C103.349765,52.8397405 103.608364,52.6764656 103.788769,52.6764656 C103.844063,52.6764656 103.887628,52.6965267 103.917789,52.7377634 C103.994866,56.1804656 104.009946,58.3771527 103.966381,59.3222519 M102.28521,51.8634351 C102.476785,52.0657176 102.708575,52.1665802 102.980019,52.1665802 C103.242528,52.1665802 103.468732,52.0657176 103.65919,51.8634351 C103.847973,51.6583664 103.944039,51.4109466 103.944039,51.1178321 C103.944039,50.8269466 103.847973,50.5772977 103.65919,50.37 C103.468732,50.1615878 103.242528,50.0601679 102.980019,50.0601679 C102.708575,50.0601679 102.476785,50.1615878 102.28521,50.37 C102.09531,50.5772977 102.001478,50.8269466 102.001478,51.1178321 C102.001478,51.4109466 102.09531,51.6583664 102.28521,51.8634351" id="Fill-177" fill="#283B83"></path>
                <path d="M108.735711,59.3222519 C108.735711,59.8020458 108.641878,60.2066107 108.451978,60.5370611 C108.347533,60.7198397 108.116303,61.0051527 107.750467,61.3957863 C107.272366,61.8627634 106.695965,62.131916 106.017353,62.2015725 L105.910674,61.9887023 C106.299968,61.7591145 106.605483,61.4141756 106.831129,60.9522137 C107.022145,60.5732824 107.115978,60.1971374 107.115978,59.8209924 L107.115978,54.0757252 C107.115978,53.9520153 107.14558,53.8517099 107.203667,53.7742519 C107.265105,53.6934504 107.459473,53.4906107 107.790681,53.1657328 C108.120212,52.8397405 108.376577,52.6764656 108.558099,52.6764656 C108.613952,52.6764656 108.658075,52.6965267 108.691028,52.7377634 C108.764196,56.1804656 108.780393,58.3771527 108.735711,59.3222519" id="Fill-178" fill="#283B83"></path>
                <path d="M111.064718,46.9963412 L111.064718,57.2731809 C111.064718,58.0271427 110.966417,58.6729977 110.773725,59.2101885 C110.54417,59.8538145 110.201233,60.1764634 109.746033,60.1764634 L109.532116,60.1764634 L109.532116,48.4485397 C109.532116,48.1247763 109.729277,47.7781656 110.121364,47.4114939 C110.487759,47.0760282 110.778752,46.9082954 110.987641,46.9082954 C111.039026,46.9082954 111.064718,46.9367153 111.064718,46.9963412" id="Fill-179" fill="#283B83"></path>
                <path d="M111.937419,51.701442 C111.930717,51.7114725 111.92569,51.717045 111.92569,51.717045 L111.920663,51.717045 C112.023432,51.6652206 112.098834,51.6412588 112.146867,51.6412588 C112.196018,51.6412588 112.232881,51.6635489 112.252429,51.7114725 C112.571349,52.0240908 112.784148,52.2012969 112.884683,52.2458771 C112.98466,52.2882282 113.224827,52.3127473 113.606302,52.3216634 C112.964553,52.3127473 113.286824,52.3094038 114.573115,52.3094038 C114.971345,52.3094038 115.418168,52.4063656 115.921402,52.6008466 C116.563152,52.8449229 117.032874,53.170358 117.332804,53.5771519 C117.88072,54.3082664 118.186235,54.9418618 118.249349,55.4790527 C118.410764,58.0301519 118.232034,59.3107168 117.71372,59.3224191 L112.085988,59.3224191 C111.745844,59.3224191 111.560971,59.0142588 111.533603,58.3929229 C111.541422,58.2279763 111.565998,58.0764038 111.610121,57.9426634 C111.710657,57.6177855 111.878215,57.4344496 112.116148,57.3859687 L116.852469,57.3859687 L116.852469,56.1527702 C116.852469,55.7431901 116.651399,55.3313809 116.253168,54.915671 C115.78177,54.4230603 115.21263,54.1750832 114.543513,54.1750832 L112.804814,54.1750832 C112.638372,54.1750832 112.44568,54.0792359 112.227295,53.8858695 C111.950265,53.6568389 111.812867,53.3821137 111.812867,53.0628084 L111.812867,52.0146176 C111.812867,51.9633504 111.859784,51.8530145 111.953058,51.6869534 C111.950265,51.6869534 111.946356,51.6919687 111.937419,51.701442" id="Fill-180" fill="#283B83"></path>
                <polygon id="Fill-181" fill="#283B83" points="4.80088696 71.0213099 0.545458863 71.0213099 0.545458863 70.0600504 3.35988361 66.5493634 0.623652843 66.5493634 0.623652843 65.5886611 4.78692375 65.5886611 4.78692375 66.4791496 1.93340201 70.0600504 4.80088696 70.0600504"></polygon>
                <path d="M8.85948963,70.2327427 C8.85948963,70.4194221 8.87736254,70.5637504 8.91143278,70.6673992 C8.94606154,70.7732771 9.00582408,70.8379183 9.09239599,70.8629947 L9.09239599,71.0212542 L7.95634916,71.0212542 C7.90664013,70.885842 7.8725699,70.7264679 7.8530214,70.5448038 C7.50561672,70.9326511 7.05767692,71.1288038 6.50417525,71.1288038 C6.12214181,71.1288038 5.81327559,71.0218115 5.58092776,70.8100557 C5.34690435,70.5988573 5.23128896,70.312987 5.23128896,69.9535595 C5.23128896,69.6063916 5.33238261,69.3227504 5.53624548,69.0992924 C5.73954983,68.8741626 6.04450635,68.7337351 6.44888094,68.6735519 L7.44082742,68.5292237 C7.57654983,68.5102771 7.67373378,68.4718267 7.73349632,68.417216 C7.79381739,68.3626053 7.82230234,68.2907198 7.82230234,68.2049031 C7.82230234,68.0505443 7.7664495,67.9312924 7.6525097,67.8527198 C7.5385699,67.7708038 7.3637505,67.7323534 7.13028562,67.7323534 C6.8862087,67.7323534 6.7074796,67.7758191 6.59577391,67.8655366 C6.4835097,67.9535824 6.41369365,68.0973534 6.38632575,68.2957351 L5.3597505,68.2957351 C5.41225217,67.8070252 5.57869365,67.4498267 5.86130903,67.2258115 C6.14504147,67.0012389 6.59633244,66.888674 7.21462341,66.888674 C7.71394783,66.888674 8.11273712,66.9895366 8.41043278,67.1884756 C8.70980401,67.388529 8.85948963,67.676071 8.85948963,68.0538878 L8.85948963,70.2327427 Z M7.82230234,69.069758 C7.69272375,69.1605901 7.43803478,69.2324756 7.05991104,69.2870863 C6.744901,69.3311092 6.5365699,69.4029947 6.44050301,69.5005137 C6.34220201,69.5969183 6.29361003,69.7262008 6.29361003,69.8861321 C6.29361003,70.0466206 6.34499465,70.1681015 6.44888094,70.2477885 C6.55276722,70.3302618 6.67508495,70.370384 6.81862676,70.370384 C7.09007157,70.370384 7.3263291,70.2945977 7.52404816,70.1441397 C7.72344281,69.9908954 7.82230234,69.804216 7.82230234,69.5757427 L7.82230234,69.069758 Z" id="Fill-182" fill="#283B83"></path>
                <path d="M11.8697344,70.9548855 C11.6714569,71.5243969 11.5195371,71.907229 11.4184435,72.0961374 C11.3179084,72.2867176 11.1944736,72.4238015 11.0481391,72.5118473 C10.9018047,72.5976641 10.6571692,72.6428015 10.3119987,72.6428015 C10.1332696,72.6428015 9.97353043,72.6344427 9.82887157,72.6160534 L9.82887157,71.7790611 C9.90706555,71.7890916 10.0025739,71.7941069 10.1193064,71.7941069 C10.2717846,71.7941069 10.396895,71.7606718 10.495196,71.6960305 C10.5918214,71.6330611 10.6739251,71.4653282 10.7398314,71.1933893 L9.24520936,66.9939389 L10.4304067,66.9939389 L11.2933331,69.9613053 L11.3117645,69.9613053 L12.1372696,66.9939389 L13.2604702,66.9939389 L11.8697344,70.9548855 Z" id="Fill-183" fill="#283B83"></path>
                <path d="M17.2900294,69.8414962 C17.1649191,70.2577634 16.9454174,70.5781832 16.6259391,70.7971832 C16.3075779,71.0184122 15.9361565,71.1293053 15.5150261,71.1293053 C14.8503773,71.1293053 14.343792,70.944855 13.9935946,70.5792977 C13.6417217,70.2137405 13.4674609,69.7055267 13.4674609,69.0591145 C13.4674609,68.4093588 13.6322268,67.8844275 13.9623171,67.4859924 C14.2912903,67.0881145 14.7839124,66.8886183 15.4373906,66.8886183 C16.0255211,66.8886183 16.4874241,67.0747405 16.8264508,67.4480992 C17.163802,67.819229 17.3335946,68.3709084 17.3335946,69.1070382 L17.3335946,69.2953893 L14.5292234,69.2953893 C14.5549157,69.6219389 14.6504241,69.8682443 14.8190997,70.0326336 C14.9866582,70.1964656 15.2156548,70.2778244 15.504414,70.2778244 C15.6764408,70.2778244 15.8261264,70.2388168 15.9517953,70.1580153 C16.0774642,70.0794427 16.1595679,69.9724504 16.1958722,69.8414962 L17.2900294,69.8414962 Z M16.2405545,68.606626 C16.2187719,68.3514046 16.1338756,68.1457786 15.9886582,67.9908626 C15.8428823,67.8353893 15.6546582,67.7584885 15.4234274,67.7584885 C14.9196348,67.7584885 14.6303171,68.0410153 14.5599425,68.606626 L16.2405545,68.606626 Z" id="Fill-184" fill="#283B83"></path>
                <path d="M21.7560786,71.0213099 L20.7144231,71.0213099 L20.7144231,70.5130962 L20.6993428,70.5130962 C20.4558244,70.9226763 20.0659716,71.1288595 19.5292258,71.1288595 C18.9958311,71.1288595 18.580286,70.9293634 18.2820318,70.5337145 C17.9826605,70.1369511 17.834092,69.6120198 17.834092,68.9622641 C17.834092,68.3247679 17.9899214,67.8193405 18.3032559,67.4482107 C18.6177074,67.0748519 19.0181722,66.8887298 19.5063261,66.8887298 C20.0263161,66.8887298 20.4167274,67.0982565 20.6770017,67.5178672 L20.6920819,67.5178672 L20.6920819,65.5886611 L21.7560786,65.5886611 L21.7560786,71.0213099 Z M18.9260151,69.0358214 C18.9260151,69.3907908 19.0025334,69.6827908 19.1594799,69.9129359 C19.3147508,70.1419664 19.5269916,70.2567603 19.7962023,70.2567603 C20.0950151,70.2567603 20.3273629,70.1514397 20.4898946,69.9413557 C20.6552191,69.7296 20.7367642,69.448745 20.7367642,69.0993481 C20.7367642,68.6702641 20.6608043,68.3481725 20.5066505,68.1314015 C20.3547308,67.9146305 20.1268512,67.8048519 19.8258043,67.8048519 C19.5420719,67.8048519 19.3203361,67.9146305 19.1633896,68.1314015 C19.0047676,68.3481725 18.9260151,68.6507603 18.9260151,69.0358214 L18.9260151,69.0358214 Z" id="Fill-185" fill="#283B83"></path>
                <polygon id="Fill-186" fill="#283B83" points="29.2627007 65.5886611 29.2627007 71.0213099 28.1255368 71.0213099 28.1255368 68.5855618 26.0008946 68.5855618 26.0008946 71.0213099 24.8626137 71.0213099 24.8626137 65.5886611 26.0008946 65.5886611 26.0008946 67.6454779 28.1255368 67.6454779 28.1255368 65.5886611"></polygon>
                <path d="M34.1983605,69.0056183 C34.1983605,69.6654046 34.0095779,70.1819771 33.6303371,70.5609084 C33.2516548,70.9387252 32.7573572,71.1293053 32.1480027,71.1293053 C31.5470261,71.1293053 31.0555211,70.9398397 30.670695,70.5642519 C30.286986,70.1892214 30.0959692,69.6704198 30.0959692,69.0056183 C30.0959692,68.3402595 30.286986,67.819229 30.670695,67.4480992 C31.0555211,67.0747405 31.5470261,66.8886183 32.1480027,66.8886183 C32.7618254,66.8886183 33.2577987,67.0797557 33.6325712,67.4614733 C34.010695,67.8409618 34.1983605,68.3558626 34.1983605,69.0056183 M33.1058789,69.0078473 C33.1058789,68.6233435 33.0276849,68.3229847 32.8679458,68.1050992 C32.7082067,67.8883282 32.4680395,67.7791069 32.1480027,67.7791069 C31.84919,67.7791069 31.614608,67.8799695 31.4436983,68.0850382 C31.2722301,68.2889924 31.1873338,68.5965954 31.1873338,69.0078473 C31.1873338,69.4129695 31.269996,69.7189008 31.436996,69.9261985 C31.6017619,70.1340534 31.839695,70.2382595 32.1480027,70.2382595 C32.4658054,70.2382595 32.705414,70.1307099 32.8662702,69.9161679 C33.0276849,69.7010687 33.1058789,69.3995954 33.1058789,69.0078473" id="Fill-187" fill="#283B83"></path>
                <path d="M38.6098415,71.0213099 L37.5949953,71.0213099 L37.5949953,70.4523557 L37.5804736,70.4523557 C37.3107043,70.9031725 36.901303,71.1288595 36.350594,71.1288595 C35.9233197,71.1288595 35.5887612,71.0018061 35.3435672,70.7521573 C35.0994903,70.4997221 34.9782896,70.1302641 34.9782896,69.6421115 L34.9782896,66.9934931 L36.0400522,66.9934931 L36.0400522,69.4944397 C36.0400522,69.7507756 36.0992562,69.9391267 36.2171057,70.0578214 C36.3360722,70.1776305 36.5058649,70.238371 36.7287177,70.238371 C36.9677679,70.238371 37.1649284,70.1581267 37.3179652,69.9987527 C37.4693264,69.8404931 37.5469619,69.6131344 37.5469619,69.3194626 L37.5469619,66.9934931 L38.6098415,66.9934931 L38.6098415,71.0213099 Z" id="Fill-188" fill="#283B83"></path>
                <path d="M41.9021431,68.2268588 C41.8831532,68.0524389 41.8178054,67.9170267 41.7088923,67.8206221 C41.6010963,67.7242176 41.428511,67.6762939 41.1911365,67.6762939 C40.9710763,67.6762939 40.8102201,67.7125153 40.7057753,67.782729 C40.601889,67.855729 40.5505043,67.9454466 40.5505043,68.0535534 C40.5505043,68.158874 40.593511,68.2402328 40.6812,68.2993015 C40.770006,68.3572557 41.1073572,68.4542176 41.6949291,68.5918588 C42.2942301,68.7334008 42.6762635,68.8961183 42.8399124,69.0822405 C43.0018856,69.2683626 43.0834308,69.5007366 43.0834308,69.7788053 C43.0834308,70.2262786 42.9264843,70.5667595 42.6109157,70.8035916 C42.2953472,71.0409809 41.8261833,71.1580038 41.2017485,71.1580038 C40.651598,71.1580038 40.220414,71.0465534 39.9081967,70.8175229 C39.5948622,70.5918359 39.4166916,70.2340802 39.3697753,69.7503855 L40.4572301,69.7503855 C40.4572301,69.9587977 40.5253706,70.1148282 40.6594174,70.2173626 C40.7934642,70.3198969 40.9984441,70.3706069 41.2732401,70.3706069 C41.505588,70.3706069 41.6826415,70.3355 41.8060763,70.2658435 C41.9300696,70.1956298 41.9915077,70.1020115 41.9915077,69.9866603 C41.9915077,69.8679656 41.9462669,69.7765763 41.8552268,69.7102634 C41.7653037,69.6450649 41.4597886,69.5581336 40.9397987,69.4466832 C40.3589291,69.3229733 39.9746615,69.163042 39.7858789,68.9646603 C39.5959793,68.7673931 39.502705,68.5272176 39.502705,68.2491489 C39.502705,67.8501565 39.6462468,67.5241641 39.9322134,67.2711718 C40.2176214,67.0165076 40.642103,66.8888969 41.2017485,66.8888969 C41.7496649,66.8888969 42.1691197,67.0031336 42.4606716,67.2293779 C42.7533405,67.4567366 42.9141967,67.7877443 42.9471498,68.2268588 L41.9021431,68.2268588 Z" id="Fill-189" fill="#283B83"></path>
                <path d="M47.4233084,69.8414962 C47.3004321,70.2577634 47.0809304,70.5781832 46.7614522,70.7971832 C46.4436495,71.0184122 46.0727866,71.1293053 45.6510977,71.1293053 C44.9864488,71.1293053 44.4787465,70.944855 44.1274321,70.5792977 C43.7772348,70.2137405 43.6018569,69.7055267 43.6018569,69.0591145 C43.6018569,68.4093588 43.7671813,67.8844275 44.0972716,67.4859924 C44.4251278,67.0881145 44.9177498,66.8886183 45.5729037,66.8886183 C46.1604756,66.8886183 46.6234957,67.0747405 46.9614054,67.4480992 C47.3004321,67.819229 47.4679906,68.3709084 47.4679906,69.1070382 L47.4679906,69.2953893 L44.665295,69.2953893 C44.6898702,69.6219389 44.7859371,69.8682443 44.9546127,70.0326336 C45.1221712,70.1964656 45.3506094,70.2778244 45.63881,70.2778244 C45.8113953,70.2778244 45.9616395,70.2388168 46.0867498,70.1580153 C46.2140943,70.0794427 46.2945224,69.9724504 46.3325023,69.8414962 L47.4233084,69.8414962 Z M46.3760676,68.606626 C46.3542849,68.3514046 46.2705057,68.1457786 46.1252883,67.9908626 C45.9783953,67.8353893 45.7896127,67.7584885 45.5572649,67.7584885 C45.0545893,67.7584885 44.7663886,68.0410153 44.694897,68.606626 L46.3760676,68.606626 Z" id="Fill-190" fill="#283B83"></path>
                <polygon id="Fill-191" fill="#283B83" points="51.420808 71.0213099 50.2842027 71.0213099 50.2842027 65.5886611 54.1564803 65.5886611 54.1564803 66.5493634 51.420808 66.5493634 51.420808 67.771974 53.8157779 67.771974 53.8157779 68.7337908 51.420808 68.7337908"></polygon>
                <path d="M58.4858575,69.0056183 C58.4858575,69.6654046 58.2959579,70.1819771 57.9178341,70.5609084 C57.5391518,70.9387252 57.0442957,71.1293053 56.4360582,71.1293053 C55.8356401,71.1293053 55.3435766,70.9398397 54.958192,70.5642519 C54.5744829,70.1892214 54.3829077,69.6704198 54.3829077,69.0056183 C54.3829077,68.3402595 54.5744829,67.819229 54.958192,67.4480992 C55.3435766,67.0747405 55.8356401,66.8886183 56.4360582,66.8886183 C57.0498809,66.8886183 57.5452957,67.0797557 57.9211853,67.4614733 C58.2976334,67.8409618 58.4858575,68.3558626 58.4858575,69.0056183 M57.3928174,69.0078473 C57.3928174,68.6233435 57.3140649,68.3229847 57.1548843,68.1050992 C56.9951452,67.8883282 56.756095,67.7791069 56.4360582,67.7791069 C56.1361284,67.7791069 55.9026635,67.8799695 55.7317538,68.0850382 C55.5614027,68.2889924 55.4748308,68.5965954 55.4748308,69.0078473 C55.4748308,69.4129695 55.55861,69.7189008 55.7239344,69.9261985 C55.8898174,70.1340534 56.1266334,70.2382595 56.4360582,70.2382595 C56.7538609,70.2382595 56.9934696,70.1307099 57.1532087,69.9161679 C57.3140649,69.7010687 57.3928174,69.3995954 57.3928174,69.0078473" id="Fill-192" fill="#283B83"></path>
                <path d="M59.2822074,66.993716 L60.3009632,66.993716 L60.3009632,67.6913954 L60.316602,67.6913954 C60.4394783,67.4283725 60.5891639,67.2277618 60.7634247,67.0934641 C60.9388027,66.9586092 61.1577458,66.8889527 61.4230468,66.8889527 C61.4923043,66.8889527 61.5610033,66.8945252 61.6257926,66.9039985 L61.6257926,67.9806092 C61.5777592,67.9700214 61.4766656,67.9644489 61.3236288,67.9644489 C60.9924214,67.9644489 60.7461104,68.0446931 60.5852542,68.2040672 C60.4255151,68.3623267 60.3456455,68.6030595 60.3456455,68.9257084 L60.3456455,71.0215328 L59.2822074,71.0215328 L59.2822074,66.993716 Z" id="Fill-193" fill="#283B83"></path>
                <polygon id="Fill-194" fill="#283B83" points="64.3480602 71.0211985 65.4863411 71.0211985 65.4863411 65.5885496 64.3480602 65.5885496"></polygon>
                <path d="M68.8151147,68.2268588 C68.7944492,68.0524389 68.7307769,67.9170267 68.6218639,67.8206221 C68.5135094,67.7242176 68.3414826,67.6762939 68.1046666,67.6762939 C67.8840478,67.6762939 67.7231916,67.7125153 67.6204224,67.782729 C67.5148605,67.855729 67.4629174,67.9454466 67.4629174,68.0535534 C67.4629174,68.158874 67.5081582,68.2402328 67.5969642,68.2993015 C67.6829776,68.3572557 68.0208873,68.4542176 68.6073421,68.5918588 C69.2083187,68.7334008 69.5903522,68.8961183 69.7523254,69.0822405 C69.9159742,69.2683626 69.9969609,69.5007366 69.9969609,69.7788053 C69.9969609,70.2262786 69.8400144,70.5667595 69.5250043,70.8035916 C69.2099943,71.0409809 68.7408304,71.1580038 68.1163957,71.1580038 C67.5645696,71.1580038 67.1333856,71.0465534 66.8211682,70.8175229 C66.5089508,70.5918359 66.3291047,70.2340802 66.2816298,69.7503855 L67.3707602,69.7503855 C67.3707602,69.9587977 67.4394592,70.1148282 67.573506,70.2173626 C67.7075528,70.3198969 67.9114157,70.3706069 68.1856532,70.3706069 C68.418001,70.3706069 68.5950545,70.3355 68.7196064,70.2658435 C68.8430411,70.1956298 68.9033622,70.1020115 68.9033622,69.9866603 C68.9033622,69.8679656 68.859797,69.7765763 68.7681983,69.7102634 C68.6788338,69.6450649 68.3727602,69.5581336 67.8527702,69.4466832 C67.2719007,69.3229733 66.8881916,69.163042 66.699409,68.9646603 C66.5100679,68.7673931 66.4151181,68.5272176 66.4151181,68.2491489 C66.4151181,67.8501565 66.5575428,67.5241641 66.8457435,67.2711718 C67.13171,67.0165076 67.5550746,66.8888969 68.1163957,66.8888969 C68.663195,66.8888969 69.0837669,67.0031336 69.3742017,67.2293779 C69.6657535,67.4567366 69.8282853,67.7877443 69.8601214,68.2268588 L68.8151147,68.2268588 Z" id="Fill-195" fill="#283B83"></path>
                <polygon id="Fill-196" fill="#283B83" points="70.7744883 71.0211985 71.8373679 71.0211985 71.8373679 65.5885496 70.7744883 65.5885496"></polygon>
                <path d="M76.226787,70.2327427 C76.226787,70.4194221 76.2429843,70.5637504 76.2781716,70.6673992 C76.3122418,70.7732771 76.3731214,70.8379183 76.4613689,70.8629947 L76.4613689,71.0212542 L75.3219709,71.0212542 C75.2733789,70.885842 75.2387502,70.7264679 75.2186431,70.5448038 C74.871797,70.9326511 74.4244157,71.1288038 73.8714726,71.1288038 C73.4877635,71.1288038 73.1800144,71.0218115 72.947108,70.8100557 C72.7142017,70.5988573 72.5969107,70.312987 72.5969107,69.9535595 C72.5969107,69.6063916 72.6974458,69.3227504 72.9013087,69.0992924 C73.1057301,68.8741626 73.4101281,68.7337351 73.8150612,68.6735519 L74.8070077,68.5292237 C74.9444057,68.5102771 75.0410311,68.4718267 75.1002351,68.417216 C75.1588806,68.3626053 75.1901582,68.2907198 75.1901582,68.2049031 C75.1901582,68.0505443 75.1315127,67.9312924 75.019807,67.8527198 C74.9053087,67.7708038 74.7310478,67.7323534 74.4964659,67.7323534 C74.253506,67.7323534 74.0736599,67.7758191 73.9602786,67.8655366 C73.8485729,67.9535824 73.7798739,68.0973534 73.752506,68.2957351 L72.7259308,68.2957351 C72.778991,67.8070252 72.9454324,67.4498267 73.2274893,67.2258115 C73.5095462,67.0012389 73.9630712,66.888674 74.5824793,66.888674 C75.0795696,66.888674 75.4794759,66.9895366 75.7782886,67.1884756 C76.0759843,67.388529 76.226787,67.676071 76.226787,68.0538878 L76.226787,70.2327427 Z M75.1901582,69.069758 C75.0561114,69.1605901 74.8047736,69.2324756 74.4260913,69.2870863 C74.1116398,69.3311092 73.9033087,69.4029947 73.8072418,69.5005137 C73.7072652,69.5969183 73.6586732,69.7262008 73.6586732,69.8861321 C73.6586732,70.0466206 73.7111749,70.1681015 73.8150612,70.2477885 C73.918389,70.3302618 74.0407067,70.370384 74.1870411,70.370384 C74.4568104,70.370384 74.6902753,70.2945977 74.8879943,70.1441397 C75.0896231,69.9908954 75.1901582,69.804216 75.1901582,69.5757427 L75.1901582,69.069758 Z" id="Fill-197" fill="#283B83"></path>
                <path d="M82.9880528,71.0213099 L81.9246147,71.0213099 L81.9246147,68.5565847 C81.9246147,68.3208672 81.8793739,68.1341878 81.7855411,67.9926458 C81.6917084,67.8516611 81.5392301,67.7792183 81.3297819,67.7792183 C81.1197753,67.7792183 80.9499826,67.8460885 80.8215211,67.9759282 C80.6919425,68.1063252 80.6293873,68.3030351 80.6293873,68.566058 L80.6293873,71.0213099 L79.5670662,71.0213099 L79.5670662,68.5081038 C79.5670662,68.2567832 79.5162401,68.0717756 79.4151465,67.9553099 C79.3129358,67.8388443 79.1520796,67.7792183 78.9303438,67.7792183 C78.7080495,67.7792183 78.5421666,67.8460885 78.4321365,67.9776 C78.3237819,68.1091115 78.2718388,68.3058214 78.2718388,68.566058 L78.2718388,71.0213099 L77.2078421,71.0213099 L77.2078421,66.9934931 L78.2271565,66.9934931 L78.2271565,67.5852947 L78.2416783,67.5852947 C78.4796114,67.1211038 78.8683472,66.8887298 79.4117953,66.8887298 C79.9055344,66.8887298 80.2713706,67.1032718 80.5059525,67.5323557 C80.7746047,67.1032718 81.135414,66.8887298 81.5844709,66.8887298 C81.9994575,66.8887298 82.3373672,67.0085389 82.5987585,67.2425847 C82.8573572,67.4771878 82.9880528,67.8076382 82.9880528,68.2333786 L82.9880528,71.0213099 Z" id="Fill-198" fill="#283B83"></path>
                <path d="M85.0320435,66.5174885 L83.9697224,66.5174885 L83.9697224,65.5328244 L85.0320435,65.5328244 L85.0320435,66.5174885 Z M85.0320435,71.0211985 L83.9697224,71.0211985 L83.9697224,66.9933817 L85.0320435,66.9933817 L85.0320435,71.0211985 Z" id="Fill-199" fill="#283B83"></path>
                <path d="M89.5376365,69.5536198 C89.4761983,70.025055 89.2890913,70.4039863 88.9701716,70.6943145 C88.6518104,70.9840855 88.2239776,71.128971 87.6928171,71.128971 C87.0901649,71.128971 86.6288204,70.9489786 86.3087836,70.5923374 C85.9887468,70.2340244 85.8290077,69.7436427 85.8290077,69.1217496 C85.8290077,68.3811618 85.9988003,67.8250244 86.3350344,67.4516656 C86.6740612,67.0766351 87.1488104,66.8888412 87.760399,66.8888412 C88.2401749,66.8888412 88.6479007,67.0203527 88.9807836,67.2811466 C89.3142251,67.543055 89.5018906,67.9264443 89.5448973,68.4341008 L88.4669375,68.4341008 C88.4261649,68.2106427 88.3485294,68.0451389 88.2290043,67.9387038 C88.1094793,67.8322687 87.9558839,67.7787725 87.760399,67.7787725 C87.4900712,67.7787725 87.2839742,67.8863221 87.1393154,68.1008641 C86.9957736,68.3148489 86.9226064,68.5973756 86.9226064,68.947887 C86.9226064,69.4522 86.9957736,69.7976962 87.1432251,69.9810321 C87.2895595,70.1654824 87.4872786,70.2568718 87.740292,70.2568718 C87.9430378,70.2568718 88.1089207,70.1872153 88.2401749,70.047345 C88.3714291,69.9085893 88.4434793,69.7436427 88.458001,69.5536198 L89.5376365,69.5536198 Z" id="Fill-200" fill="#283B83"></path>
                <path d="M95.8710137,67.3649015 C95.7313816,66.7402221 95.3286826,66.4281611 94.6645923,66.4281611 C94.2529569,66.4281611 93.9251007,66.5953366 93.6782311,66.930245 C93.4363883,67.2657107 93.3146291,67.7304588 93.3146291,68.3272756 C93.3146291,68.8861992 93.4330371,69.334787 93.6698532,69.6735962 C93.9072278,70.0140771 94.2373181,70.1823672 94.6645923,70.1823672 C95.3169535,70.1823672 95.719094,69.8402145 95.8710137,69.1575809 L97.0109702,69.1575809 C96.9294251,69.7165046 96.6842311,70.1890542 96.2770639,70.5791305 C95.8687796,70.9708786 95.3242144,71.1659168 94.6439268,71.1659168 C93.882094,71.1659168 93.2777662,70.9151534 92.8298264,70.4136267 C92.380211,69.9126573 92.1545656,69.2116344 92.1545656,68.3116725 C92.1545656,67.4529473 92.3785355,66.7602832 92.8253582,66.2342374 C93.2738565,65.7076344 93.882094,65.4451687 94.6584485,65.4451687 C95.336502,65.4451687 95.8849769,65.6285046 96.3033147,65.9940618 C96.7238866,66.3596191 96.95791,66.8176802 97.0109702,67.3649015 L95.8710137,67.3649015 Z" id="Fill-201" fill="#283B83"></path>
                <path d="M101.439933,71.0213099 L100.425087,71.0213099 L100.425087,70.4523557 L100.411124,70.4523557 C100.141913,70.9031725 99.7325117,71.1288595 99.1806856,71.1288595 C98.7539699,71.1288595 98.4160602,71.0018061 98.1725418,70.7521573 C97.9295819,70.4997221 97.8072642,70.1302641 97.8072642,69.6421115 L97.8072642,66.9934931 L98.8690268,66.9934931 L98.8690268,69.4944397 C98.8690268,69.7507756 98.9299064,69.9391267 99.0483144,70.0578214 C99.1656054,70.1776305 99.335398,70.238371 99.5593679,70.238371 C99.7984181,70.238371 99.9944615,70.1581267 100.145823,69.9987527 C100.301094,69.8404931 100.377054,69.6131344 100.377054,69.3194626 L100.377054,66.9934931 L101.439933,66.9934931 L101.439933,71.0213099 Z" id="Fill-202" fill="#283B83"></path>
                <polygon id="Fill-203" fill="#283B83" points="102.476562 71.0211985 103.538883 71.0211985 103.538883 65.5885496 102.476562 65.5885496"></polygon>
                <path d="M105.763055,66.993716 L106.419884,66.993716 L106.419884,67.7499069 L105.763055,67.7499069 L105.763055,70.0090061 C105.763055,70.114884 105.790423,70.183426 105.847951,70.2151893 C105.906038,70.2475099 105.995961,70.263113 106.115486,70.263113 C106.238363,70.263113 106.338339,70.2575405 106.419884,70.2480672 L106.419884,71.0365786 C106.264055,71.0605405 106.074155,71.0716855 105.846276,71.0716855 C105.427379,71.0716855 105.130801,71.0098305 104.958774,70.8816626 C104.784513,70.7568382 104.697941,70.5278076 104.697941,70.1968 L104.697941,67.7499069 L104.150583,67.7499069 L104.150583,66.993716 L104.697941,66.993716 L104.697941,65.9065176 L105.763055,65.9065176 L105.763055,66.993716 Z" id="Fill-204" fill="#283B83"></path>
                <path d="M110.739655,71.0213099 L109.72425,71.0213099 L109.72425,70.4523557 L109.708611,70.4523557 C109.440518,70.9031725 109.027765,71.1288595 108.480407,71.1288595 C108.053133,71.1288595 107.716899,71.0018061 107.473381,70.7521573 C107.228187,70.4997221 107.105869,70.1302641 107.105869,69.6421115 L107.105869,66.9934931 L108.168748,66.9934931 L108.168748,69.4944397 C108.168748,69.7507756 108.228511,69.9391267 108.344126,70.0578214 C108.464769,70.1776305 108.63512,70.238371 108.856856,70.238371 C109.09814,70.238371 109.292508,70.1581267 109.446662,69.9987527 C109.599698,69.8404931 109.676775,69.6131344 109.676775,69.3194626 L109.676775,66.9934931 L110.739655,66.9934931 L110.739655,71.0213099 Z" id="Fill-205" fill="#283B83"></path>
                <path d="M111.776004,66.993716 L112.79476,66.993716 L112.79476,67.6913954 L112.810399,67.6913954 C112.933275,67.4283725 113.081844,67.2277618 113.257222,67.0934641 C113.433158,66.9586092 113.652101,66.8889527 113.915727,66.8889527 C113.984984,66.8889527 114.053683,66.8945252 114.120148,66.9039985 L114.120148,67.9806092 C114.072115,67.9700214 113.972138,67.9644489 113.81575,67.9644489 C113.486777,67.9644489 113.239349,68.0446931 113.07961,68.2040672 C112.919312,68.3623267 112.838325,68.6030595 112.838325,68.9257084 L112.838325,71.0215328 L111.776004,71.0215328 L111.776004,66.993716 Z" id="Fill-206" fill="#283B83"></path>
                <path d="M118.255772,69.8414962 C118.132337,70.2577634 117.913953,70.5781832 117.594474,70.7971832 C117.276113,71.0184122 116.90525,71.1293053 116.483003,71.1293053 C115.818912,71.1293053 115.31121,70.944855 114.961571,70.5792977 C114.609698,70.2137405 114.435996,69.7055267 114.435996,69.0591145 C114.435996,68.4093588 114.596852,67.8844275 114.929735,67.4859924 C115.25815,67.0881145 115.75133,66.8886183 116.40425,66.8886183 C116.992381,66.8886183 117.457076,67.0747405 117.794427,67.4480992 C118.132337,67.819229 118.300454,68.3709084 118.300454,69.1070382 L118.300454,69.2953893 L115.496641,69.2953893 C115.523451,69.6219389 115.618401,69.8682443 115.786518,70.0326336 C115.95631,70.1964656 116.183073,70.2778244 116.471832,70.2778244 C116.644417,70.2778244 116.794103,70.2388168 116.92033,70.1580153 C117.044882,70.0794427 117.12922,69.9724504 117.163849,69.8414962 L118.255772,69.8414962 Z M117.208531,68.606626 C117.186748,68.3514046 117.102969,68.1457786 116.957752,67.9908626 C116.811417,67.8353893 116.621518,67.7584885 116.389728,67.7584885 C115.885936,67.7584885 115.597735,68.0410153 115.527919,68.606626 L117.208531,68.606626 Z" id="Fill-207" fill="#283B83"></path>
            </g>
        </g>
    </g>
</svg>